<?xml version="1.0" encoding="UTF-8" standalone="no"?>
<svg
   xmlns:dc="http://purl.org/dc/elements/1.1/"
   xmlns:cc="http://creativecommons.org/ns#"
   xmlns:rdf="http://www.w3.org/1999/02/22-rdf-syntax-ns#"
   xmlns:svg="http://www.w3.org/2000/svg"
   xmlns="http://www.w3.org/2000/svg"
   xmlns:xlink="http://www.w3.org/1999/xlink"
   xmlns:sodipodi="http://sodipodi.sourceforge.net/DTD/sodipodi-0.dtd"
   xmlns:inkscape="http://www.inkscape.org/namespaces/inkscape"
   sodipodi:docname="sphinx-doc-bot-logo-background.svg"
   id="svg6"
   version="1.1"
   viewBox="0 0 500 500"
   inkscape:version="0.92.4 (5da689c313, 2019-01-14)"
   width="500"
   height="500"
   inkscape:export-filename="C:\Users\Hinrich\PycharmProjects\sphinx-doc-bot\logo\sphinx-doc-bot-logo-background.png"
   inkscape:export-xdpi="192"
   inkscape:export-ydpi="192">
  <metadata
     id="metadata12">
    <rdf:RDF>
      <cc:Work
         rdf:about="">
        <dc:format>image/svg+xml</dc:format>
        <dc:type
           rdf:resource="http://purl.org/dc/dcmitype/StillImage" />
        <dc:title />
      </cc:Work>
    </rdf:RDF>
  </metadata>
  <defs
     id="defs10">
    <linearGradient
       inkscape:collect="always"
       id="linearGradient4622">
      <stop
         style="stop-color:#084468;stop-opacity:1"
         offset="0"
         id="stop4618" />
      <stop
         style="stop-color:#0a5079;stop-opacity:1"
         offset="1"
         id="stop4620" />
    </linearGradient>
    <linearGradient
       inkscape:collect="always"
       xlink:href="#linearGradient4622"
       id="linearGradient4624"
       x1="71.18644"
       y1="66.94915"
       x2="403.38983"
       y2="394.06781"
       gradientUnits="userSpaceOnUse" />
  </defs>
  <sodipodi:namedview
     pagecolor="#ffffff"
     bordercolor="#666666"
     borderopacity="1"
     objecttolerance="10"
     gridtolerance="10"
     guidetolerance="10"
     inkscape:pageopacity="0"
     inkscape:pageshadow="2"
     inkscape:window-width="1822"
     inkscape:window-height="1051"
     id="namedview8"
     showgrid="false"
     inkscape:zoom="1.18"
     inkscape:cx="5.6943571"
     inkscape:cy="201.60395"
     inkscape:window-x="1791"
     inkscape:window-y="-9"
     inkscape:window-maximized="1"
     inkscape:current-layer="svg6" />
  <style
     id="style2">
    @media (prefers-color-scheme: dark) {
      svg { fill: white; }
    }
  </style>
  <rect
     style="opacity:1;fill:url(#linearGradient4624);fill-opacity:1;stroke:none;stroke-width:3.34762859;stroke-linecap:round;stroke-linejoin:round;stroke-miterlimit:4;stroke-dasharray:none;stroke-dashoffset:0;stroke-opacity:1;paint-order:markers stroke fill"
     id="rect4605"
     width="500"
     height="500"
     x="0"
     y="0" />
  <path
     style="fill:#ff6600;fill-opacity:1;stroke-width:0.23340638"
     d="M 197.2168 70.744141 C 195.19394 70.744141 191.22546 71.443303 185.3125 72.84375 L 185.54688 72.144531 C 181.18995 71.210909 177.49327 70.783522 174.45898 70.861328 C 171.4247 70.939138 168.62606 71.831326 166.05859 73.542969 C 163.49112 75.254612 161.42713 77.0862 159.87109 79.03125 C 158.31504 80.97631 156.79855 83.465716 155.32031 86.5 C 153.84207 89.534285 152.59736 92.332922 151.58594 94.900391 C 150.57451 97.46786 149.40858 100.19163 148.08594 103.07031 C 146.76331 105.94899 145.47725 108.3222 144.23242 110.18945 C 143.29879 111.43429 141.97727 113.06896 140.26562 115.0918 C 138.55399 117.11466 137.15367 118.90293 136.06445 120.45898 C 134.97521 122.01502 134.2741 123.41727 133.96289 124.66211 C 133.65167 126.06254 133.80923 128.12263 134.43164 130.8457 C 135.05406 133.56878 135.28646 135.55205 135.13086 136.79688 C 134.50844 142.70985 132.36959 150.21942 128.71289 159.32227 C 125.05619 168.42512 121.74945 174.99921 118.79297 179.04492 C 118.17056 179.82294 116.45908 181.57381 113.6582 184.29688 C 110.85732 187.01996 109.14587 189.39316 108.52344 191.41602 C 107.90103 192.19404 107.86164 194.37227 108.40625 197.95117 C 108.95087 201.53007 109.14584 204.01948 108.99023 205.41992 C 108.36782 210.71046 106.42199 217.71194 103.1543 226.42578 C 99.886611 235.13962 96.619254 242.29864 93.351562 247.90039 C 92.884755 248.83402 91.561271 250.62231 89.382812 253.26758 C 87.204354 255.91285 85.882823 258.09108 85.416016 259.80273 C 85.104802 261.04756 85.14224 263.2258 85.53125 266.33789 C 85.920261 269.44997 85.882823 271.78575 85.416016 273.3418 C 84.17118 279.25476 81.835395 286.37244 78.412109 294.69727 C 74.988806 303.0221 71.489053 310.14173 67.910156 316.05469 C 66.976525 317.61074 65.69244 319.4384 64.058594 321.53906 C 62.424757 323.63971 61.142607 325.4674 60.208984 327.02344 C 59.275362 328.57949 58.651058 330.21414 58.339844 331.92578 C 58.184242 332.85941 58.418629 334.3759 59.041016 336.47656 C 59.663434 338.57721 59.895836 340.25125 59.740234 341.49609 C 59.584623 343.67455 59.273448 346.55196 58.806641 350.13086 C 58.339825 353.70976 58.105469 355.81117 58.105469 356.43359 C 54.682174 365.76985 54.83972 375.65069 58.574219 386.07617 C 62.931136 398.21329 70.671174 408.44469 81.796875 416.76953 C 92.922575 425.09436 104.47745 429.25586 116.45898 429.25586 L 331.89258 429.25586 C 342.00686 429.25586 351.53713 425.87232 360.48438 419.10352 C 369.43162 412.33474 375.38336 403.97039 378.33984 394.01172 L 442.52734 182.54688 C 445.95063 171.34338 444.55034 161.305 438.32617 152.43555 C 435.05847 148.07863 430.46766 144.73446 424.55469 142.40039 C 424.8659 147.84654 424.47795 152.27983 423.38867 155.70312 L 353.36523 386.07617 C 352.1204 390.12188 349.39859 393.34985 345.19727 395.76172 C 340.99596 398.17359 336.63947 399.38086 332.12695 399.38086 L 116.69336 399.38086 C 98.020851 399.38086 86.81653 393.93332 83.082031 383.04102 C 81.52599 378.8397 81.60281 375.49358 83.314453 373.00391 C 85.026104 370.66984 87.984232 369.50391 92.185547 369.50391 L 295.01562 369.50391 C 309.48681 369.50391 319.48387 366.82147 325.00781 361.45312 C 330.53177 356.08477 336.09355 344.13996 341.69531 325.62305 L 405.65039 114.1582 C 409.07368 102.64348 407.67144 92.528288 401.44727 83.814453 C 395.22309 75.10061 386.35455 70.744141 374.83984 70.744141 L 197.2168 70.744141 z M 220.65625 103.87695 L 362.56836 103.87695 C 364.74683 103.87695 366.30271 104.61551 367.23633 106.09375 C 368.16996 107.57199 368.32555 109.3248 367.70312 111.34766 L 362.80273 126.28516 C 362.18031 128.30803 360.89427 130.05692 358.94922 131.53516 C 357.00417 133.01341 355.0209 133.75391 352.99805 133.75391 L 211.08789 133.75391 C 208.90944 133.75391 207.35159 133.01341 206.41797 131.53516 C 205.48434 130.05692 205.3307 128.30803 205.95312 126.28516 L 210.85352 111.34766 C 211.47594 109.3248 212.76003 107.57199 214.70508 106.09375 C 216.65013 104.61551 218.63341 103.87695 220.65625 103.87695 z M 201.2832 163.62891 L 343.19531 163.62891 C 345.37377 163.62891 346.92965 164.36942 347.86328 165.84766 C 348.7969 167.3259 348.9525 169.07481 348.33008 171.09766 L 343.42969 186.03516 C 342.80727 188.05802 341.52317 189.81082 339.57812 191.28906 C 337.63306 192.7673 335.64785 193.50586 333.625 193.50586 L 191.71484 193.50586 C 189.53639 193.50586 187.97854 192.7673 187.04492 191.28906 C 186.11129 189.81082 185.95766 188.05802 186.58008 186.03516 L 191.48047 171.09766 C 192.10288 169.07481 193.38698 167.3259 195.33203 165.84766 C 197.27708 164.36942 199.26034 163.62891 201.2832 163.62891 z M 248.70508 238.92969 C 260.39088 238.89087 271.52539 241.39158 291.05469 246.62891 C 301.85473 249.52525 308.90076 250.16451 315.28516 248.82812 C 317.24322 248.41825 318.16658 248.46389 318.42578 248.98438 C 319.42506 250.99098 320.48277 257.87694 319.8457 258.23242 C 317.93199 259.30027 309.88841 260.38946 304.13281 260.36133 C 298.7564 260.33503 295.97738 259.85064 286.79102 257.33594 C 277.26222 254.7275 268.25588 252.44806 261.91797 251.03906 C 260.89199 250.81097 257.15056 250.2221 253.60547 249.73242 C 243.9388 248.39718 232.59592 249.74939 208.91797 255.06055 C 195.43347 258.08521 184.68722 260.11608 175.72852 261.33008 L 167.50586 262.44336 L 169.55664 257.06055 L 171.60352 251.68359 L 174.48242 251.45898 C 179.16045 251.09504 196.86705 247.81898 210.33984 244.82422 C 227.65474 240.97542 238.39407 238.96394 248.70508 238.92969 z M 245.46484 252.71094 C 250.89186 252.73588 256.26078 253.14883 259.98242 253.89648 C 269.81976 255.87275 275.65428 257.28149 285.03125 259.94727 C 294.67451 262.68875 295.83299 262.86871 304.04492 262.89648 L 312.79102 262.92578 L 313.7793 266.96289 C 314.32388 269.18465 314.49888 271.33711 314.16797 271.74414 C 313.83704 272.15121 311.71254 272.82892 309.44531 273.25 C 303.5565 274.34368 292.50908 278.46717 286.63477 281.76562 C 280.88435 284.99451 277.49419 288.25873 277.47656 290.58594 C 277.46506 292.09229 279.79584 294.97594 282.5918 296.91211 L 283.9043 297.82031 L 282.16406 298.22266 C 275.13356 299.84677 271.74235 302.39308 267.81641 308.99609 C 266.57206 311.08894 264.12534 314.34811 262.38086 316.23828 C 259.02823 319.8709 245.9904 328.81246 245.22852 328 C 244.98214 327.73727 245.8538 324.25896 247.16406 320.27344 C 249.344 313.64261 249.7601 312.86544 252.12109 311.01562 C 253.53839 309.90519 255.41608 307.99757 256.29297 306.77734 C 258.67489 303.46284 262.6287 295.25121 264.30859 290.13086 L 265.79102 285.60742 L 260.88281 289.07031 C 247.66542 298.39501 226.53418 310.41937 213.77734 315.86914 C 194.64065 324.04444 179.65376 326.58373 164.16016 324.27344 C 151.11424 322.32813 145.79408 317.2774 147.09766 308.08984 C 148.19929 300.32546 153.67008 293.70063 161.75977 290.32422 C 166.01589 288.54783 175.34915 287.84886 178.6582 289.05859 C 185.14435 291.42983 184.24246 298.46965 176.80469 303.45117 C 174.66784 304.88236 169.76761 305.419 168.23242 304.39062 C 166.88508 303.48807 165.87352 300.77616 166.35352 299.35156 C 166.97105 297.51881 166.01047 297.53198 162.62305 299.39844 C 160.37822 300.6353 159.65588 301.51438 158.33008 304.62305 C 156.99062 307.76379 156.91775 308.71047 157.88086 310.54297 C 159.45853 313.54476 164.11335 315.51792 171.66992 316.38672 C 185.79231 318.01043 201.38775 313.81211 222.78711 302.63086 C 229.69626 299.0208 246.07254 289.40086 246.23828 288.85547 C 246.25678 288.79467 241.12761 288.72005 234.83984 288.69141 C 220.81644 288.62751 204.92938 286.22258 192.65625 282.30469 C 191.02186 281.78292 183.81393 280.00453 176.64062 278.35352 L 163.60547 275.35156 L 165.07422 270.31836 L 166.54297 265.28906 L 173.05469 264.5 C 176.6357 264.06607 186.35022 262.31463 194.63867 260.60938 C 222.35317 254.90745 228.4614 253.79697 235.97656 253.0957 C 238.93118 252.82 242.20864 252.69597 245.46484 252.71094 z M 229.24805 261.9043 L 226.61914 262.31836 C 225.17306 262.54607 217.97378 264.00767 210.61719 265.56836 C 203.25846 267.12952 195.72721 268.70294 193.88281 269.0625 L 190.52734 269.71484 L 197.7793 271.79492 C 204.40277 273.69433 210.30422 275.03363 220.96094 277.05859 C 225.15646 277.85581 240.40278 278.76479 244.45117 278.45898 C 245.80986 278.35634 249.28013 277.99258 252.16211 277.65039 C 258.36501 276.91387 273.7926 273.21958 277.77539 271.51758 C 280.27077 270.45121 280.43406 270.26947 279.25586 269.85547 C 277.0193 269.06956 255.60422 262.59375 255.24219 262.59375 C 255.05508 262.59375 254.4716 263.89836 253.94531 265.49414 C 251.93748 271.58201 244.77311 276.08008 237.07617 276.08008 C 233.59958 276.08008 232.45423 275.74972 230.45703 274.16797 C 227.05341 271.47237 226.275 268.63202 227.91602 264.91992 L 229.24805 261.9043 z "
     id="path4565" />
</svg>
