<?xml version="1.0" encoding="UTF-8" standalone="no"?>
<svg
   xmlns:dc="http://purl.org/dc/elements/1.1/"
   xmlns:cc="http://creativecommons.org/ns#"
   xmlns:rdf="http://www.w3.org/1999/02/22-rdf-syntax-ns#"
   xmlns:svg="http://www.w3.org/2000/svg"
   xmlns="http://www.w3.org/2000/svg"
   xmlns:sodipodi="http://sodipodi.sourceforge.net/DTD/sodipodi-0.dtd"
   xmlns:inkscape="http://www.inkscape.org/namespaces/inkscape"
   sodipodi:docname="sphinx-doc-bot-logo.svg"
   id="svg6"
   version="1.1"
   viewBox="0 0 388.69891 358.51172"
   inkscape:version="0.92.4 (5da689c313, 2019-01-14)"
   width="388.69891"
   height="358.51172"
   inkscape:export-filename="C:\Users\Hinrich\PycharmProjects\sphinx-doc-bot\logo\sphinx-doc-bot-logo.png"
   inkscape:export-xdpi="246.98"
   inkscape:export-ydpi="246.98">
  <metadata
     id="metadata12">
    <rdf:RDF>
      <cc:Work
         rdf:about="">
        <dc:format>image/svg+xml</dc:format>
        <dc:type
           rdf:resource="http://purl.org/dc/dcmitype/StillImage" />
        <dc:title />
      </cc:Work>
    </rdf:RDF>
  </metadata>
  <defs
     id="defs10" />
  <sodipodi:namedview
     pagecolor="#ffffff"
     bordercolor="#666666"
     borderopacity="1"
     objecttolerance="10"
     gridtolerance="10"
     guidetolerance="10"
     inkscape:pageopacity="0"
     inkscape:pageshadow="2"
     inkscape:window-width="1822"
     inkscape:window-height="1051"
     id="namedview8"
     showgrid="false"
     inkscape:zoom="1.18"
     inkscape:cx="-49.956173"
     inkscape:cy="130.85981"
     inkscape:window-x="1791"
     inkscape:window-y="-9"
     inkscape:window-maximized="1"
     inkscape:current-layer="svg6" />
  <style
     id="style2">
    @media (prefers-color-scheme: dark) {
      svg { fill: white; }
    }
  </style>
  <path
     style="fill:#ff6600;fill-opacity:1;stroke-width:0.23340638"
     d="m 141.56627,0 c -2.02286,0 -5.99134,0.699162 -11.9043,2.099609 l 0.23438,-0.699219 c -4.35693,-0.933622 -8.05361,-1.361009 -11.0879,-1.283203 -3.13428,0.07781 -5.83292,0.969998 -8.40039,2.681641 -2.56747,1.711643 -4.63146,3.543231 -6.1875,5.488281 -1.55605,1.94506 -3.17254,4.434466 -4.550784,7.46875 -1.47824,3.134285 -2.72295,5.832922 -3.73437,8.400391 -1.01143,2.567469 -2.17736,5.291239 -3.5,8.169919 -1.32263,2.87868 -2.60869,5.25189 -3.85352,7.11914 -0.93363,1.24484 -2.25515,2.87951 -3.9668,4.90235 -1.71163,2.02286 -3.11195,3.81113 -4.20117,5.36718 -1.08924,1.55604 -1.79035,2.95829 -2.10156,4.20313 -0.31122,1.40043 -0.15366,3.46052 0.46875,6.18359 0.62242,2.72308 0.85482,4.70635 0.69922,5.95118 -0.62242,5.91297 -2.76127,13.42254 -6.41797,22.52539 -3.6567,9.10285 -6.96344,15.676941 -9.91992,19.722651 -0.62241,0.77802 -2.33389,2.52889 -5.13477,5.25196 -2.80088,2.72308 -4.51233,5.09628 -5.13476,7.11914 -0.62241,0.77802 -0.6618,2.95625 -0.11719,6.53515 0.54462,3.5789 0.73959,6.06831 0.58398,7.46875 -0.62241,5.29054 -2.56824,12.29202 -5.83593,21.00586 -3.267689,8.71384 -6.535046,15.87286 -9.802738,21.47461 -0.466807,0.93363 -1.790291,2.72192 -3.96875,5.36719 -2.178458,2.64527 -3.499989,4.8235 -3.966796,6.53515 -0.311214,1.24483 -0.273776,3.42307 0.115234,6.53516 0.389011,3.11208 0.351573,5.44786 -0.115234,7.00391 -1.244836,5.91296 -3.580621,13.13064 -7.003907,21.35547 -3.423303,8.32483 -6.923056,15.44446 -10.501953,21.35742 -0.933631,1.55605 -2.217716,3.38371 -3.8515618,5.48437 -1.633837,2.10065 -2.915987,3.92834 -3.84961,5.48438 -0.933622,1.55605 -1.557926,3.1907 -1.86914,4.90234 -0.155602,0.93363 0.07879,2.45012 0.701172,4.55078 0.622418,2.10065 0.85482,3.77469 0.699218,5.01953 -0.155611,2.17846 -0.466786,5.05587 -0.933593,8.63477 -0.466816,3.5789 -0.701172,5.68031 -0.701172,6.30273 -3.423295,9.33626 -3.265749,19.2171 0.46875,29.64258 4.356917,12.13712 12.0969548,22.36852 23.2226558,30.69336 11.1257,8.32483 22.680575,12.48633 34.662105,12.48633 H 276.24205 c 10.11428,0 19.64455,-3.38354 28.5918,-10.15234 8.94724,-6.76878 14.89898,-15.13313 17.85546,-25.0918 l 64.1875,-211.46484 c 3.42329,-11.2035 2.023,-21.241881 -4.20117,-30.111331 -3.2677,-4.35692 -7.85851,-7.70109 -13.77148,-10.03516 0.31121,5.44615 -0.0767,9.87944 -1.16602,13.30273 L 297.7147,315.33203 c -1.24483,4.04571 -3.96664,7.27368 -8.16796,9.68555 -4.20131,2.41187 -8.5578,3.61914 -13.17032,3.61914 H 61.042826 c -18.672509,0 -29.87683,-5.44754 -33.611329,-16.33984 -1.556041,-4.20132 -1.479221,-7.54744 0.232422,-10.03711 1.711651,-2.33407 4.669779,-3.5 8.871094,-3.5 H 239.36509 c 14.47119,0 24.46825,-2.68244 29.99219,-8.05079 5.52396,-5.36835 11.08574,-17.31316 16.6875,-35.83007 L 349.99986,43.414059 c 3.42329,-11.51472 2.02105,-21.629912 -4.20312,-30.343747 C 339.57256,4.356469 330.70402,0 319.18931,0 Z m 23.43945,33.132809 h 141.91211 c 2.17847,0 3.73435,0.73856 4.66797,2.2168 0.93363,1.47824 1.08922,3.23105 0.46679,5.25391 l -4.90039,14.9375 c -0.62242,2.02287 -1.90846,3.77176 -3.85351,5.25 -1.94505,1.47825 -3.92832,2.21875 -5.95117,2.21875 H 155.43736 c -2.17845,0 -3.7363,-0.7405 -4.66992,-2.21875 -0.93363,-1.47824 -1.08727,-3.22713 -0.46485,-5.25 l 4.9004,-14.9375 c 0.62242,-2.02286 1.90651,-3.77567 3.85156,-5.25391 1.94505,-1.47824 3.92833,-2.2168 5.95117,-2.2168 z m -19.37305,59.75196 h 141.91211 c 2.17846,0 3.73434,0.74051 4.66797,2.21875 0.93362,1.47824 1.08922,3.22715 0.4668,5.250001 l -4.90039,14.9375 c -0.62242,2.02286 -1.90652,3.77566 -3.85157,5.2539 -1.94506,1.47824 -3.93027,2.2168 -5.95312,2.2168 H 136.06431 c -2.17845,0 -3.7363,-0.73856 -4.66992,-2.2168 -0.93363,-1.47824 -1.08726,-3.23104 -0.46484,-5.2539 l 4.90039,-14.9375 c 0.62241,-2.022851 1.90651,-3.771761 3.85156,-5.250001 1.94505,-1.47824 3.92831,-2.21875 5.95117,-2.21875 z m 47.42188,75.300781 c 11.6858,-0.0388 22.82031,2.46189 42.34961,7.69922 10.80004,2.89634 17.84607,3.5356 24.23047,2.19921 1.95806,-0.40987 2.88142,-0.36423 3.14062,0.15626 0.99928,2.0066 2.05699,8.89256 1.41992,9.24804 -1.91371,1.06785 -9.95729,2.15704 -15.71289,2.12891 -5.37641,-0.0263 -8.15543,-0.51069 -17.34179,-3.12539 -9.5288,-2.60844 -18.53514,-4.88788 -24.87305,-6.29688 -1.02598,-0.22809 -4.76741,-0.81696 -8.3125,-1.30664 -9.66667,-1.33524 -21.00955,0.017 -44.6875,5.32813 -13.4845,3.12466 -24.23075,5.05553 -33.18945,6.26953 l -8.22266,1.11328 2.05078,-5.38281 2.04688,-5.37696 2.8789,-0.22461 c 4.67803,-0.36394 22.38463,-3.64 35.85742,-6.63476 17.3149,-3.8488 28.05423,-5.86028 38.36524,-5.89453 z m -3.24024,13.78125 c 5.42702,0.0249 10.79594,0.43789 14.51758,1.18554 9.83734,1.97627 15.67186,3.38501 25.04883,6.05079 9.64326,2.74148 10.80174,2.92144 19.01367,2.94921 l 8.7461,0.0293 0.98828,4.03711 c 0.54458,2.22176 0.71958,4.37422 0.38867,4.78125 -0.33093,0.40707 -2.45543,1.08478 -4.72266,1.50586 -5.88881,1.09368 -16.93623,5.21717 -22.81054,8.51562 -5.75042,3.22889 -9.14058,6.49311 -9.15821,8.82032 -0.0115,1.50635 2.31928,4.39 5.11524,6.32617 l 1.3125,0.9082 -1.74024,0.40235 c -7.0305,1.62411 -10.42171,4.17042 -14.34765,10.77343 -1.24435,2.09285 -3.69107,5.35202 -5.43555,7.24219 -3.35263,3.63262 -16.39046,12.57418 -17.15234,11.76172 -0.24638,-0.26273 0.62528,-3.74104 1.93554,-7.72656 2.17994,-6.63083 2.59604,-7.408 4.95703,-9.25782 1.4173,-1.11043 3.29499,-3.11805 4.17188,-4.23828 2.38192,-3.3145 6.33573,-11.52613 8.01562,-16.64648 l 1.48243,-4.52344 -4.90821,3.46289 c -13.21739,9.3247 -34.34863,21.34906 -47.10547,26.79883 -19.13669,8.1753 -34.12358,10.71459 -49.61718,8.4043 -13.145924,-1.94531 -18.366084,-6.99604 -17.062504,-16.1836 1.10163,-7.76438 6.57242,-14.38921 14.662114,-17.76562 4.25612,-1.77639 13.58938,-2.47536 16.89843,-1.26563 6.48615,2.37124 5.58426,9.41106 -1.85351,14.39258 -2.13685,1.43119 -7.03708,1.96783 -8.57227,0.93945 -1.34734,-0.90255 -2.3589,-3.61446 -1.8789,-5.03906 0.61753,-1.83275 -0.34305,-1.81958 -3.73047,0.0469 -2.24483,1.23686 -2.96717,2.11594 -4.29297,5.22461 -1.33946,3.14074 -1.41233,4.08742 -0.44922,5.91992 1.57767,3.10179 6.23249,4.97495 13.78906,5.84375 14.12239,1.62371 29.71783,-2.57461 51.11719,-13.75586 6.90915,-3.61006 23.28543,-13.23 23.45117,-13.77539 0.0185,-0.0608 -5.11067,-0.13542 -11.39844,-0.16406 -14.0234,-0.0639 -29.91046,-2.46883 -42.18359,-6.38672 -1.63439,-0.52177 -8.84232,-2.30016 -16.01563,-3.95117 l -13.13515,-3.10196 1.46875,-5.0332 1.46875,-5.0293 6.51172,-0.78906 c 3.58101,-0.43393 13.29553,-2.18537 21.58398,-3.89062 27.7145,-5.70193 33.82273,-6.81241 41.33789,-7.51368 2.95462,-0.2757 6.23208,-0.39973 9.48828,-0.38476 z m -16.21679,9.19336 -2.62891,0.41406 c -1.44608,0.22771 -8.64536,1.68931 -16.00195,3.25 -7.35873,1.56116 -14.88998,3.13458 -16.73438,3.49414 l -3.35547,0.65234 7.25196,2.08008 c 6.62347,1.89941 12.52492,3.23871 23.18164,5.26367 4.19552,0.79722 19.44184,1.7062 23.49023,1.40039 1.35869,-0.10264 4.82896,-0.4664 7.71094,-0.80859 6.2029,-0.73652 21.63049,-4.43081 25.61328,-6.13281 2.49538,-1.06637 2.65867,-1.24811 1.48047,-1.66211 -2.23656,-0.78591 -23.65164,-7.26172 -24.01367,-7.26172 -0.18711,0 -0.77059,1.30461 -1.29688,2.90039 -2.00783,6.08787 -9.1722,10.58594 -16.86914,10.58594 -3.47659,0 -4.62194,-0.33036 -6.61914,-1.91211 -3.40362,-2.6956 -4.18203,-5.53595 -2.54101,-9.24805 z"
     id="path4565"
     inkscape:connector-curvature="0" />
</svg>
