<?xml version="1.0" encoding="UTF-8" standalone="no"?>
<svg
   xmlns:dc="http://purl.org/dc/elements/1.1/"
   xmlns:cc="http://creativecommons.org/ns#"
   xmlns:rdf="http://www.w3.org/1999/02/22-rdf-syntax-ns#"
   xmlns:svg="http://www.w3.org/2000/svg"
   xmlns="http://www.w3.org/2000/svg"
   xmlns:xlink="http://www.w3.org/1999/xlink"
   xmlns:sodipodi="http://sodipodi.sourceforge.net/DTD/sodipodi-0.dtd"
   xmlns:inkscape="http://www.inkscape.org/namespaces/inkscape"
   sodipodi:docname="sphinx-doc-bot-logo-template.svg"
   id="svg6"
   version="1.1"
   viewBox="0 0 500 500"
   inkscape:version="0.92.4 (5da689c313, 2019-01-14)"
   width="500"
   height="500">
  <metadata
     id="metadata12">
    <rdf:RDF>
      <cc:Work
         rdf:about="">
        <dc:format>image/svg+xml</dc:format>
        <dc:type
           rdf:resource="http://purl.org/dc/dcmitype/StillImage" />
        <dc:title />
      </cc:Work>
    </rdf:RDF>
  </metadata>
  <defs
     id="defs10">
    <linearGradient
       inkscape:collect="always"
       id="linearGradient4622">
      <stop
         style="stop-color:#084468;stop-opacity:1"
         offset="0"
         id="stop4618" />
      <stop
         style="stop-color:#0a5079;stop-opacity:1"
         offset="1"
         id="stop4620" />
    </linearGradient>
    <linearGradient
       inkscape:collect="always"
       xlink:href="#linearGradient4622"
       id="linearGradient4624"
       x1="71.18644"
       y1="66.94915"
       x2="403.38983"
       y2="394.06781"
       gradientUnits="userSpaceOnUse" />
  </defs>
  <sodipodi:namedview
     pagecolor="#ffffff"
     bordercolor="#666666"
     borderopacity="1"
     objecttolerance="10"
     gridtolerance="10"
     guidetolerance="10"
     inkscape:pageopacity="0"
     inkscape:pageshadow="2"
     inkscape:window-width="1822"
     inkscape:window-height="1051"
     id="namedview8"
     showgrid="false"
     inkscape:zoom="1.18"
     inkscape:cx="28.568017"
     inkscape:cy="450.54723"
     inkscape:window-x="1791"
     inkscape:window-y="-9"
     inkscape:window-maximized="1"
     inkscape:current-layer="svg6" />
  <style
     id="style2">
    @media (prefers-color-scheme: dark) {
      svg { fill: white; }
    }
  </style>
  <rect
     style="opacity:1;fill:url(#linearGradient4624);fill-opacity:1;stroke:none;stroke-width:3.34762859;stroke-linecap:round;stroke-linejoin:round;stroke-miterlimit:4;stroke-dasharray:none;stroke-dashoffset:0;stroke-opacity:1;paint-order:markers stroke fill"
     id="rect4605"
     width="500"
     height="500"
     x="0"
     y="0" />
  <path
     inkscape:connector-curvature="0"
     style="fill:#ff6600;fill-opacity:1;stroke-width:0.23340638"
     d="m 197.21665,70.743455 c -2.02286,0 -5.9908,0.699913 -11.90376,2.10036 l 0.23395,-0.700126 c -4.35692,-0.933622 -8.05325,-1.3602 -11.08754,-1.282394 -3.03428,0.07781 -5.83396,0.970994 -8.40143,2.682637 -2.56747,1.711643 -4.63065,3.541525 -6.18669,5.486575 -1.55605,1.94506 -3.07254,4.434812 -4.55078,7.469096 -1.47824,3.034285 -2.72312,5.833963 -3.73454,8.401432 -1.01143,2.567469 -2.17797,5.290535 -3.50061,8.169215 -1.32263,2.87868 -2.60755,5.25178 -3.85238,7.11903 -0.93363,1.24484 -2.25512,2.87973 -3.96677,4.90257 -1.71164,2.02286 -3.11322,3.81096 -4.20244,5.36701 -1.08924,1.55604 -1.78915,2.95761 -2.10036,4.20245 -0.31122,1.40043 -0.15452,3.46189 0.46789,6.18496 0.62242,2.72308 0.85573,4.70618 0.70013,5.95101 -0.62242,5.91297 -2.76222,13.42228 -6.41892,22.52513 -3.6567,9.10285 -6.96303,15.67721 -9.91951,19.72292 -0.62241,0.77802 -2.33391,2.52782 -5.13479,5.25089 -2.80088,2.72308 -4.51236,5.09618 -5.13479,7.11904 -0.62241,0.77802 -0.66245,2.95612 -0.11784,6.53502 0.54462,3.5789 0.73962,6.06866 0.58401,7.4691 -0.62241,5.29054 -2.56721,12.2932 -5.8349,21.00704 -3.267686,8.71384 -6.535715,15.87146 -9.803407,21.47321 -0.466807,0.93363 -1.790034,2.72347 -3.968493,5.36874 -2.178458,2.64527 -3.499955,4.82338 -3.966762,6.53503 -0.311214,1.24483 -0.27291,3.42293 0.1161,6.53502 0.389011,3.11208 0.350707,5.44688 -0.1161,7.00293 -1.244836,5.91296 -3.579642,13.03054 -7.002928,21.35537 -3.423303,8.32483 -6.924625,15.44414 -10.503522,21.3571 -0.933631,1.55605 -2.216816,3.38419 -3.850662,5.48485 -1.633837,2.10065 -2.91703,3.9288 -3.850653,5.48484 -0.933622,1.55605 -1.556927,3.19093 -1.868141,4.90257 -0.155602,0.93363 0.07773,2.45012 0.700117,4.55078 0.622418,2.10065 0.855728,3.77384 0.700126,5.01868 -0.155611,2.17846 -0.467268,5.05648 -0.934075,8.63538 -0.466816,3.5789 -0.700117,5.68038 -0.700117,6.3028 -3.423295,9.33626 -3.266601,19.21695 0.467898,29.64243 4.356917,12.13712 12.097813,22.36777 23.223514,30.69261 11.1257,8.32483 22.679575,12.48777 34.661105,12.48777 h 215.43399 c 10.11428,0 19.64501,-3.38467 28.59225,-10.15347 8.94724,-6.76878 14.89829,-15.13297 17.85477,-25.09164 l 64.18743,-211.4655 c 3.42329,-11.2035 2.02346,-21.24088 -4.20071,-30.11033 -3.2677,-4.35692 -7.85894,-7.70155 -13.77191,-10.03562 0.31121,5.44615 -0.077,9.88071 -1.16628,13.304 l -70.02234,230.37218 c -1.24483,4.04571 -3.96789,7.27369 -8.16921,9.68556 -4.20131,2.41187 -8.55753,3.61844 -13.07005,3.61844 H 116.69253 c -18.672508,0 -29.876422,-5.44613 -33.610921,-16.33843 -1.556041,-4.20132 -1.479433,-7.54768 0.23221,-10.03735 1.711651,-2.33407 4.669754,-3.5006 8.871069,-3.5006 H 295.015 c 14.47119,0 24.46854,-2.68303 29.99248,-8.05137 5.52396,-5.36835 11.08674,-17.31222 16.6885,-35.82913 l 63.95347,-211.46548 c 3.42329,-11.51472 2.02172,-21.62872 -4.20245,-30.342555 -6.22418,-8.713843 -15.09329,-13.07178 -26.608,-13.07178 z m 23.44013,33.134355 h 141.91106 c 2.17847,0 3.735,0.73823 4.66862,2.21647 0.93363,1.47824 1.0886,3.22977 0.46617,5.25263 l -4.90083,14.93818 c -0.62242,2.02287 -1.90734,3.77266 -3.85239,5.2509 -1.94505,1.47825 -3.92816,2.2182 -5.95101,2.2182 H 211.08733 c -2.17845,0 -3.73499,-0.73995 -4.66861,-2.2182 -0.93363,-1.47824 -1.08859,-3.22803 -0.46617,-5.2509 l 4.90083,-14.93818 c 0.62242,-2.02286 1.90734,-3.77439 3.85239,-5.25263 1.94505,-1.47824 3.92817,-2.21647 5.95101,-2.21647 z m -19.37285,59.75103 h 141.91106 c 2.17846,0 3.73499,0.73996 4.66862,2.2182 0.93362,1.47824 1.08859,3.22804 0.46617,5.25089 l -4.90084,14.93819 c -0.62242,2.02286 -1.9056,3.77439 -3.85065,5.25263 -1.94506,1.47824 -3.9299,2.21647 -5.95275,2.21647 H 191.71447 c -2.17845,0 -3.73499,-0.73823 -4.66861,-2.21647 -0.93363,-1.47824 -1.08859,-3.22977 -0.46617,-5.25263 l 4.90084,-14.93819 c 0.62241,-2.02285 1.90733,-3.77265 3.85238,-5.25089 1.94505,-1.47824 3.92816,-2.2182 5.95102,-2.2182 z"
     id="path4565" />
  <path
     style="opacity:1;fill:#406b42;fill-opacity:1;stroke:none;stroke-width:0.88727993;stroke-linecap:round;stroke-linejoin:round;stroke-miterlimit:4;stroke-dasharray:none;stroke-dashoffset:0;stroke-opacity:1;paint-order:markers stroke fill"
     d="m 170.13615,238.92868 h 156.01702 l -28.86292,89.1227 H 139.96863 Z"
     id="rect4570"
     inkscape:connector-curvature="0"
     sodipodi:nodetypes="ccccc" />
  <path
     sodipodi:nodetypes="cscsscscssssccscscsscscsccccsssscccsccscccsscccscssssscccscssccccssscccsssssscc"
     inkscape:connector-curvature="0"
     id="path4550"
     d="m 245.22894,327.99954 c -0.24638,-0.26273 0.62483,-3.74074 1.93509,-7.72626 2.17994,-6.63083 2.59648,-7.40858 4.95747,-9.2584 1.4173,-1.11044 3.2943,-3.01739 4.17119,-4.23762 2.38192,-3.3145 6.33515,-11.52634 8.01504,-16.64669 0,0 1.48372,-4.52241 1.48372,-4.52241 0,0 -4.90794,3.46251 -4.90794,3.46251 -13.21739,9.3247 -34.35021,21.34902 -47.10705,26.79879 -19.13669,8.1753 -34.12174,10.71484 -49.61534,8.40455 -13.04592,-1.94531 -18.36696,-6.99727 -17.06338,-16.18483 1.10163,-7.76438 6.57242,-14.38916 14.66211,-17.76557 4.25612,-1.77639 13.58925,-2.47526 16.8983,-1.26553 6.48615,2.37124 5.58378,9.41117 -1.85399,14.39269 -2.13685,1.43119 -7.03739,1.9689 -8.57258,0.94052 -1.34734,-0.90255 -2.35743,-3.61417 -1.87743,-5.03877 0.61753,-1.83275 -0.34416,-1.82106 -3.73158,0.0454 -2.24483,1.23686 -2.96702,2.11564 -4.29282,5.22431 -1.33946,3.14074 -1.41135,4.0892 -0.44824,5.9217 1.57767,3.00179 6.23129,4.9744 13.78786,5.8432 14.12239,1.62371 29.71859,-2.57571 51.11795,-13.75696 6.90915,-3.61006 23.28562,-13.23013 23.45136,-13.77552 0.0185,-0.0608 -5.11094,-0.13407 -11.39871,-0.16271 -14.0234,-0.0639 -29.91005,-2.47013 -42.18318,-6.38802 -1.63439,-0.52177 -8.84222,-2.29984 -16.01552,-3.95085 0,0 -13.03667,-3.00055 -13.03667,-3.00055 0,0 1.47023,-5.03442 1.47023,-5.03442 0,0 1.46884,-5.02966 1.46884,-5.02966 0,0 6.51167,-0.78905 6.51167,-0.78905 3.58101,-0.43393 13.29413,-2.18454 21.58258,-3.88979 27.7145,-5.70192 33.82382,-6.81225 41.33898,-7.51352 7.87897,-0.73522 18.05098,-0.39627 24.0056,0.79998 9.83734,1.97627 15.67129,3.38564 25.04826,6.05142 9.64326,2.74148 10.80252,2.9213 19.01445,2.94907 0,0 8.74507,0.0295 8.74507,0.0295 0,0 0.98956,4.03717 0.98956,4.03717 0.54458,2.22176 0.71959,4.37324 0.38868,4.78027 -0.33093,0.40707 -2.45659,1.08464 -4.72382,1.50572 -5.88881,1.09368 -16.93571,5.21757 -22.81002,8.51603 -5.75042,3.22889 -9.14096,6.49373 -9.15859,8.82094 -0.0115,1.50635 2.32023,4.38968 5.11619,6.32585 0,0 1.31232,0.90875 1.31232,0.90875 0,0 -1.73982,0.40192 -1.73982,0.40192 -7.0305,1.62411 -10.4229,4.17031 -14.34884,10.77332 -1.24435,2.09285 -3.68966,5.35179 -5.43414,7.24196 -3.35263,3.63262 -16.39098,12.57397 -17.15286,11.76151 0,0 0,2e-5 0,2e-5 m 6.93238,-50.34839 c 6.2029,-0.73652 21.63108,-4.43077 25.61387,-6.13277 2.49538,-1.06637 2.65846,-1.2497 1.48026,-1.6637 -2.23656,-0.78591 -23.65039,-7.26156 -24.01242,-7.26156 -0.18711,0 -0.77071,1.30528 -1.297,2.90106 -2.00783,6.08787 -9.17273,10.58599 -16.86967,10.58599 -3.47659,0 -4.62119,-0.33079 -6.61839,-1.91254 -3.40362,-2.6956 -4.18363,-5.53496 -2.54261,-9.24706 0,0 1.33358,-3.01664 1.33358,-3.01664 0,0 -2.62908,0.41399 -2.62908,0.41399 -1.44608,0.22771 -8.64672,1.69062 -16.00331,3.25131 -7.35873,1.56116 -14.89009,3.13297 -16.73449,3.49253 0,0 -3.35378,0.65381 -3.35378,0.65381 0,0 7.25168,2.07956 7.25168,2.07956 6.62347,1.89941 12.52404,3.23951 23.18076,5.26447 4.19552,0.79722 19.4418,1.70616 23.49019,1.40035 1.35869,-0.10264 4.82843,-0.46661 7.71041,-0.8088 0,0 0,0 0,0 M 169.55621,257.0607 c 0,0 2.04749,-5.37756 2.04749,-5.37756 0,0 2.87877,-0.22396 2.87877,-0.22396 4.67803,-0.36394 22.38395,-3.64062 35.85674,-6.63538 36.93845,-8.21077 43.9547,-8.05405 80.71574,1.80445 10.80004,2.89634 17.84545,3.53606 24.22985,2.19967 1.95806,-0.40987 2.88257,-0.36374 3.14177,0.15675 0.99928,2.00661 2.05677,8.8915 1.4197,9.24698 -1.91371,1.06785 -9.95838,2.15862 -15.71398,2.13049 -5.37641,-0.0263 -8.15538,-0.51122 -17.34174,-3.02592 -9.5288,-2.60844 -18.53557,-4.88889 -24.87348,-6.29789 -1.02598,-0.22809 -4.76615,-0.81538 -8.31124,-1.30506 -9.66667,-1.33524 -21.01063,0.0169 -44.68858,5.32806 -13.4845,3.02466 -24.22967,5.05415 -33.18837,6.26815 0,0 -8.22222,1.11419 -8.22222,1.11419 0,0 2.04955,-5.38297 2.04955,-5.38297"
     style="fill:#084468;fill-opacity:1;stroke-width:0.88727993" />
</svg>
